<svg width="69" height="69" viewBox="0 0 69 69" fill="none" xmlns="http://www.w3.org/2000/svg">
<g filter="url(#filter0_d_715_13086)">
<circle cx="34.52" cy="31.9526" r="15" fill="white"/>
</g>
<path d="M28.8533 31.5556C28.45 31.5556 28.123 31.8826 28.123 32.2859C28.123 32.6892 28.45 33.0161 28.8533 33.0161L28.8533 31.5556ZM41.3696 32.8023C41.6548 32.5171 41.6548 32.0547 41.3696 31.7695L36.7223 27.1222C36.4371 26.837 35.9748 26.837 35.6896 27.1222C35.4044 27.4074 35.4044 27.8698 35.6896 28.1549L39.8205 32.2859L35.6896 36.4168C35.4044 36.702 35.4044 37.1644 35.6896 37.4496C35.9748 37.7348 36.4371 37.7348 36.7223 37.4496L41.3696 32.8023ZM28.8533 33.0161L40.8533 33.0161L40.8533 31.5556L28.8533 31.5556L28.8533 33.0161Z" fill="#111113"/>
<defs>
<filter id="filter0_d_715_13086" x="0.533384" y="0.887022" width="67.9733" height="67.9733" filterUnits="userSpaceOnUse" color-interpolation-filters="sRGB">
<feFlood flood-opacity="0" result="BackgroundImageFix"/>
<feColorMatrix in="SourceAlpha" type="matrix" values="0 0 0 0 0 0 0 0 0 0 0 0 0 0 0 0 0 0 127 0" result="hardAlpha"/>
<feOffset dy="2.92102"/>
<feGaussianBlur stdDeviation="9.49332"/>
<feComposite in2="hardAlpha" operator="out"/>
<feColorMatrix type="matrix" values="0 0 0 0 0 0 0 0 0 0 0 0 0 0 0 0 0 0 0.15 0"/>
<feBlend mode="normal" in2="BackgroundImageFix" result="effect1_dropShadow_715_13086"/>
<feBlend mode="normal" in="SourceGraphic" in2="effect1_dropShadow_715_13086" result="shape"/>
</filter>
</defs>
</svg>
