<svg width="22" height="16" viewBox="0 0 22 16" fill="none" xmlns="http://www.w3.org/2000/svg">
<path d="M0.144508 11.9797L0.170656 12.1554L0.197847 12.1491C0.38369 13.0182 0.811808 13.8169 1.43266 14.4528C2.05352 15.0887 2.84174 15.5358 3.70612 15.7424C4.5705 15.949 5.47572 15.9066 6.31703 15.6202C7.15834 15.3338 7.90135 14.815 8.46011 14.1239C9.01886 13.4328 9.37052 12.5976 9.47439 11.715C9.57825 10.8323 9.43009 9.93832 9.04703 9.13638C8.66398 8.33444 8.06169 7.65734 7.30985 7.18344C6.55802 6.70954 5.68737 6.4582 4.79864 6.45849C4.56541 6.45849 4.34159 6.49405 4.11882 6.52648C4.19098 6.28383 4.26524 6.03701 4.38447 5.81528C4.5037 5.49316 4.68987 5.21391 4.87498 4.93257C5.02977 4.62822 5.30275 4.42218 5.50355 4.16176C5.71377 3.90866 6.00034 3.74028 6.2273 3.53006C6.45007 3.31042 6.74187 3.2006 6.97405 3.04582C7.21669 2.90671 7.42796 2.75297 7.65386 2.67976L8.21759 2.44758L8.71333 2.24154L8.20713 0.213595L7.58275 0.364202C7.38298 0.414403 7.1393 0.472972 6.86214 0.543045C6.57871 0.595339 6.27645 0.738624 5.93968 0.869357C5.60814 1.01892 5.22221 1.11827 4.86453 1.35778C4.50475 1.58578 4.08953 1.77613 3.72348 2.08152C3.36893 2.39633 2.94117 2.6693 2.62532 3.06883C2.28018 3.44325 1.93922 3.83649 1.67462 4.28413C1.36818 4.71084 1.16005 5.17939 0.940418 5.64271C0.741701 6.10604 0.581682 6.57981 0.450949 7.04C0.203077 7.96246 0.0922146 8.8389 0.0493336 9.58879C0.013773 10.3397 0.0346909 10.9641 0.0786171 11.4159C0.0933151 11.6046 0.115295 11.7927 0.144508 11.9797ZM11.6491 11.9797L11.6752 12.1554L11.7024 12.1491C11.8883 13.0182 12.3164 13.8169 12.9373 14.4528C13.5581 15.0887 14.3463 15.5358 15.2107 15.7424C16.0751 15.949 16.9803 15.9066 17.8216 15.6202C18.6629 15.3338 19.4059 14.815 19.9647 14.1239C20.5235 13.4328 20.8751 12.5976 20.979 11.715C21.0828 10.8323 20.9347 9.93832 20.5516 9.13638C20.1686 8.33444 19.5663 7.65734 18.8144 7.18344C18.0626 6.70954 17.192 6.4582 16.3032 6.45849C16.07 6.45849 15.8462 6.49405 15.6234 6.52648C15.6956 6.28383 15.7698 6.03701 15.8891 5.81528C16.0083 5.49316 16.1945 5.21391 16.3796 4.93257C16.5344 4.62822 16.8073 4.42218 17.0081 4.16176C17.2184 3.90866 17.5049 3.74028 17.7319 3.53006C17.9547 3.31042 18.2465 3.2006 18.4786 3.04582C18.7213 2.90671 18.9325 2.75297 19.1585 2.67976L19.7222 2.44758C20.037 2.31894 20.2169 2.24363 20.2169 2.24363L19.7107 0.215688L19.0863 0.366292C18.8865 0.416494 18.6428 0.475064 18.3657 0.545137C18.0823 0.597431 17.78 0.740716 17.4432 0.871449C17.1117 1.02101 16.7258 1.12037 16.3681 1.35987C16.0083 1.58787 15.5931 1.77822 15.227 2.08361C14.8725 2.39842 14.4447 2.67139 14.1289 3.07092C13.7837 3.44534 13.4428 3.83859 13.1782 4.28622C12.8717 4.71294 12.6636 5.18149 12.444 5.64481C12.2452 6.10813 12.0852 6.58191 11.9545 7.04209C11.7066 7.96455 11.5958 8.84099 11.5529 9.59088C11.5173 10.3418 11.5382 10.9662 11.5822 11.418C11.5978 11.606 11.6201 11.7933 11.6491 11.9797Z" fill="white"/>
</svg>
