<svg width="39" height="39" viewBox="0 0 39 39" fill="none" xmlns="http://www.w3.org/2000/svg">
<circle cx="19.5" cy="19.5" r="19" stroke="white"/>
<path d="M12.1333 18.9333C11.581 18.9333 11.1333 19.3811 11.1333 19.9333C11.1333 20.4856 11.581 20.9333 12.1333 20.9333L12.1333 18.9333ZM28.4404 20.6405C28.8309 20.2499 28.8309 19.6168 28.4404 19.2262L22.0764 12.8623C21.6859 12.4718 21.0528 12.4718 20.6622 12.8623C20.2717 13.2528 20.2717 13.886 20.6622 14.2765L26.3191 19.9334L20.6622 25.5902C20.2717 25.9807 20.2717 26.6139 20.6622 27.0044C21.0528 27.3949 21.6859 27.3949 22.0764 27.0044L28.4404 20.6405ZM12.1333 20.9333L27.7333 20.9334L27.7333 18.9334L12.1333 18.9333L12.1333 20.9333Z" fill="white"/>
</svg>
