<svg width="80" height="80" viewBox="0 0 80 80" fill="none" xmlns="http://www.w3.org/2000/svg">
<g clip-path="url(#clip0_521_1778)">
<path d="M63.5489 2.42188H16.4513C7.38 2.42188 0 9.80188 0 18.8731C0 27.9444 7.38 35.3244 16.4513 35.3244H28.4298V48.6155L27.845 48.1248C24.9539 45.6987 20.4298 45.8959 17.7609 48.5652C14.9641 51.362 15.1472 55.8072 18.1886 58.3591L28.4297 66.9525V75.2344C28.4297 76.5287 29.4791 77.5781 30.7734 77.5781H58.8984C60.1928 77.5781 61.2422 76.5287 61.2422 75.2344V48.8975C61.2422 45.3575 58.5931 42.3578 55.0802 41.9202L42.4922 40.3519V35.3241H63.5489C72.6202 35.3241 80 27.9441 80 18.8728C80 9.80156 72.6202 2.42188 63.5489 2.42188ZM33.1172 72.8906V68.2031H56.5547V72.8906H33.1172ZM54.5008 46.5717C55.6717 46.7177 56.5548 47.7175 56.5548 48.8975V63.5156H31.6266L21.2016 54.7681C20.2763 53.9917 20.2202 52.735 21.0755 51.8795C22.0361 50.9191 23.7914 50.8425 24.832 51.7156L29.267 55.437C30.7883 56.7133 33.1173 55.6306 33.1173 53.6416V23.6719C33.1173 22.3795 34.1688 21.3281 35.4611 21.3281C36.7534 21.3281 37.8048 22.3795 37.8048 23.6719V42.4219C37.8048 43.6042 38.6856 44.6014 39.8589 44.7477L54.5008 46.5717ZM63.5489 30.6367H42.4922V23.6719C42.4922 19.7948 39.338 16.6406 35.4609 16.6406C31.5839 16.6406 28.4297 19.7948 28.4297 23.6719V30.6367H16.4511C9.96469 30.6367 4.6875 25.3595 4.6875 18.8731C4.6875 12.3867 9.96469 7.10938 16.4513 7.10938H63.5489C70.0353 7.10938 75.3125 12.3866 75.3125 18.8731C75.3125 25.3597 70.0353 30.6367 63.5489 30.6367Z" fill="#161949"/>
<path d="M61.7646 12.4834L54.0468 20.2011L51.0165 17.1709C50.1014 16.2556 48.6173 16.2556 47.702 17.1709C46.7867 18.0862 46.7867 19.5701 47.702 20.4854L52.3895 25.1729C53.3046 26.0883 54.7887 26.0884 55.704 25.1729L65.079 15.7979C65.9943 14.8826 65.9943 13.3987 65.079 12.4834C64.1639 11.5679 62.6798 11.5679 61.7646 12.4834Z" fill="#F15C3E"/>
</g>
<defs>
<clipPath id="clip0_521_1778">
<rect width="80" height="80" fill="white"/>
</clipPath>
</defs>
</svg>
