<svg width="80" height="80" viewBox="0 0 80 80" fill="none" xmlns="http://www.w3.org/2000/svg">
<path d="M54.0701 47.1875C50.193 47.1875 47.0388 50.3417 47.0388 54.2188C47.0388 58.0958 50.193 61.25 54.0701 61.25C57.9471 61.25 61.1013 58.0958 61.1013 54.2188C61.1013 50.3417 57.9471 47.1875 54.0701 47.1875ZM54.0701 56.5625C52.7777 56.5625 51.7263 55.5111 51.7263 54.2188C51.7263 52.9264 52.7777 51.875 54.0701 51.875C55.3624 51.875 56.4138 52.9264 56.4138 54.2188C56.4138 55.5111 55.3624 56.5625 54.0701 56.5625Z" fill="#F15C3E"/>
<path d="M72.8201 19.0625H56.4138V2.41109C56.4138 1.11812 55.3668 0.069375 54.0737 0.0673437C50.4163 0.0614062 11.8572 0 11.8747 0C10.5826 0 9.53131 1.04781 9.53099 2.34313L9.52646 19.0625H7.18724C3.32896 19.0625 0.155991 22.1975 0.155991 26.1039L0.148804 72.9678C0.148491 76.8542 3.29302 80 7.18005 80H63.4451C66.5005 80 69.1057 78.0405 70.0732 75.3125H72.8201C76.6971 75.3125 79.8513 72.1583 79.8513 68.2812V26.0938C79.8513 22.2167 76.6971 19.0625 72.8201 19.0625ZM14.2113 28.4375L14.2154 13.9211C18.8879 13.033 22.5862 9.36406 23.5149 4.70609L42.5838 4.73656C43.5124 9.33016 47.1352 12.9584 51.7263 13.8941C51.6904 31.0617 51.7263 11.2564 51.7263 28.4377L14.2113 28.4375ZM51.7263 9.03906C49.7285 8.33047 48.144 6.74344 47.4383 4.74422L51.7263 4.75109V9.03906ZM18.6704 4.69828C17.9558 6.76906 16.3004 8.40391 14.2166 9.09L14.2179 4.69109L18.6704 4.69828ZM7.18724 23.75H9.52505L9.5238 28.4375H7.18724C5.89037 28.4375 4.84474 27.3878 4.84349 26.0963C4.84349 24.7961 5.90037 23.75 7.18724 23.75ZM65.7888 72.9688C65.7888 74.2611 64.7374 75.3125 63.4451 75.3125H7.18005C5.88474 75.3125 4.83599 74.2641 4.8363 72.9684L4.8424 32.7264C6.88849 33.448 4.40303 32.9856 63.4451 33.125C64.7374 33.125 65.7888 34.1764 65.7888 35.4688V72.9688ZM75.1638 68.2812C75.1638 69.5736 74.1124 70.625 72.8201 70.625H70.4763V35.4688C70.4763 31.5917 67.3221 28.4375 63.4451 28.4375H56.4138V23.75H72.8201C74.1124 23.75 75.1638 24.8014 75.1638 26.0938V68.2812Z" fill="#161949"/>
</svg>
