<svg width="80" height="80" viewBox="0 0 80 80" fill="none" xmlns="http://www.w3.org/2000/svg">
<g clip-path="url(#clip0_521_1794)">
<path d="M48.153 49.548H35.4436C35.4436 49.548 42.1727 37.3508 43.2831 35.9883C44.4059 34.6106 45.4692 35.4698 45.5706 36.6851C45.6719 37.9005 45.52 55.5214 45.52 55.5214" stroke="#F15C3E" stroke-width="5.44922" stroke-miterlimit="10" stroke-linecap="round" stroke-linejoin="round"/>
<path d="M30.1529 55.6728C30.1529 55.6728 20.3059 55.7966 19.8395 55.6411C19.3731 55.4856 20.5873 54.6644 27.0434 45.4398C28.2492 43.7172 28.9128 42.2638 29.1951 41.0461L29.2951 40.2633C29.2951 37.4031 26.9765 35.0845 24.1164 35.0845C21.5996 35.0845 19.5021 36.8797 19.0348 39.2595" stroke="#F15C3E" stroke-width="5.44922" stroke-miterlimit="10" stroke-linecap="round" stroke-linejoin="round"/>
<path d="M73.3356 54.3942L71.5226 56.2072L59.2411 43.9256L64.9522 38.2147C64.9522 38.2147 64.3611 30.4178 56.9718 23.0284C49.5826 15.639 41.7856 15.0481 41.7856 15.0481L36.0747 20.759L23.7931 8.47749L25.6061 6.66452C28.5204 3.75014 32.5201 2.18514 36.6381 2.35655C43.6773 2.64967 54.8215 4.96374 64.929 15.0712C75.0365 25.1787 77.3506 36.3228 77.6437 43.3622C77.815 47.48 76.2498 51.4798 73.3356 54.3942Z" stroke="#161949" stroke-width="5.44922" stroke-miterlimit="10" stroke-linecap="round" stroke-linejoin="round"/>
<path d="M17.9781 15.9203C8.58438 21.8375 2.34375 32.3032 2.34375 44.225C2.34375 62.6891 17.3109 77.6563 35.775 77.6563C47.6969 77.6563 58.1625 71.4157 64.0797 62.0219" stroke="#161949" stroke-width="5.44922" stroke-miterlimit="10" stroke-linecap="round" stroke-linejoin="round"/>
<path d="M65.2196 69.3611L64.0796 62.0219" stroke="#161949" stroke-width="5.44922" stroke-miterlimit="10" stroke-linecap="round" stroke-linejoin="round"/>
<path d="M56.6677 62.4978L64.0798 62.0219" stroke="#161949" stroke-width="5.44922" stroke-miterlimit="10" stroke-linecap="round" stroke-linejoin="round"/>
</g>
<defs>
<clipPath id="clip0_521_1794">
<rect width="80" height="80" fill="white"/>
</clipPath>
</defs>
</svg>
