<svg width="62" height="80" viewBox="0 0 62 80" fill="none" xmlns="http://www.w3.org/2000/svg">
<path d="M51.2453 36.4009H37.4091C38.7233 33.428 40.4032 28.7632 41.1817 23.0292C41.8014 18.4667 38.2642 14.4075 33.6732 14.4075C29.996 14.4075 26.8554 17.0497 26.2056 20.6901C24.7914 28.6113 19.773 36.709 17.9547 39.4474H17.2002V39.3873C17.2002 38.0929 16.1508 37.0436 14.8565 37.0436H2.94096C1.64659 37.0436 0.597229 38.0929 0.597229 39.3873V77.6561C0.597229 78.9505 1.64659 79.9999 2.94096 79.9999H14.8565C16.1508 79.9999 17.2002 78.9505 17.2002 77.6561V75.6243H49.3274C54.5597 75.6243 58.9035 71.6987 59.4315 66.4931L61.3498 47.5822C61.9555 41.6121 57.2646 36.4009 51.2453 36.4009ZM5.28484 75.3126V41.7312H12.5129C12.507 81.4805 12.5129 72.9062 12.5129 75.3126H5.28484ZM56.6862 47.1092L54.7679 66.0202C54.4839 68.8231 52.1448 70.937 49.3275 70.937H17.2002V44.1351H19.1908C19.943 44.1351 20.6495 43.774 21.0902 43.1644C21.4081 42.7246 28.9002 32.2674 30.8199 21.514C31.0702 20.1125 32.2699 19.0953 33.673 19.0953C35.4283 19.0953 36.7752 20.6428 36.5367 22.399C35.3274 31.3081 31.6429 37.4653 31.6079 37.5231C30.6591 39.0759 31.7705 41.0887 33.6078 41.0887H51.2452C54.4622 41.0884 57.016 43.8583 56.6862 47.1092Z" fill="#161949"/>
<path d="M39.8608 11.1428C41.053 11.6349 42.4259 11.0708 42.9212 9.87003L45.345 3.99503C45.8386 2.79846 45.2689 1.42815 44.0722 0.934557C42.8753 0.440807 41.5053 1.01081 41.0117 2.20737L38.588 8.08237C38.0944 9.27893 38.664 10.6492 39.8608 11.1428Z" fill="#F15C3E"/>
<path d="M25.0434 9.38393C25.4345 10.6186 26.7526 11.3016 27.9854 10.9106C29.2193 10.5197 29.9029 9.20252 29.5122 7.96862L27.5065 1.6369C27.1157 0.402837 25.7981 -0.280756 24.5645 0.110181C23.3306 0.501119 22.647 1.81831 23.0378 3.05221L25.0434 9.38393Z" fill="#F15C3E"/>
<path d="M9.81199 15.2548L17.85 20.3607C18.9445 21.0562 20.3923 20.7295 21.085 19.6392C21.779 18.5465 21.4559 17.0981 20.3634 16.4042L12.3254 11.2982C11.2326 10.6037 9.78418 10.9273 9.09043 12.0198C8.39637 13.1124 8.71949 14.5607 9.81199 15.2548Z" fill="#F15C3E"/>
<path d="M49.5065 21.4425L57.4941 17.2699C58.6415 16.6705 59.0857 15.2547 58.4863 14.1074C57.8869 12.9602 56.4711 12.5153 55.3238 13.1152L47.3361 17.2878C46.1888 17.8872 45.7446 19.303 46.344 20.4503C46.9452 21.6018 48.3633 22.04 49.5065 21.4425Z" fill="#F15C3E"/>
</svg>
