<svg width="22" height="27" viewBox="0 0 22 27" fill="none" xmlns="http://www.w3.org/2000/svg">
<path d="M11 26.9775C7.81059 26.9775 0 17.7173 0 11.6066C0 8.52834 1.15893 5.57615 3.22183 3.39949C5.28473 1.22283 8.08262 0 11 0C13.9174 0 16.7153 1.22283 18.7782 3.39949C20.8411 5.57615 22 8.52834 22 11.6066C22 17.7173 14.1906 26.9775 11 26.9775ZM11 1.88215C8.55658 1.88514 6.21404 2.91064 4.48628 4.73368C2.75852 6.55672 1.78662 9.02843 1.78378 11.6066C1.78378 17.3045 9.43859 25.0954 11 25.0954C12.5614 25.0954 20.2162 17.3045 20.2162 11.6066C20.2134 9.02843 19.2415 6.55672 17.5137 4.73368C15.786 2.91064 13.4434 1.88514 11 1.88215Z" fill="#64CBE1"/>
<path d="M11.2621 16.7263C10.0707 16.7263 8.90605 16.3782 7.91544 15.7261C6.92483 15.0739 6.15275 14.147 5.69682 13.0625C5.24089 11.978 5.1216 10.7847 5.35403 9.63338C5.58646 8.4821 6.16017 7.42457 7.00262 6.59454C7.84506 5.76451 8.9184 5.19925 10.0869 4.97024C11.2554 4.74124 12.4666 4.85877 13.5673 5.30798C14.668 5.75719 15.6088 6.5179 16.2707 7.49392C16.9326 8.46993 17.2859 9.61741 17.2859 10.7913C17.2839 12.3647 16.6486 13.8732 15.5193 14.9858C14.3901 16.0984 12.8591 16.7243 11.2621 16.7263ZM11.2621 6.73043C10.4469 6.73043 9.65007 6.96859 8.97228 7.4148C8.29449 7.86101 7.76622 8.49522 7.45427 9.23724C7.14232 9.97926 7.0607 10.7958 7.21973 11.5835C7.37876 12.3712 7.77131 13.0948 8.34771 13.6627C8.92412 14.2306 9.65851 14.6174 10.458 14.774C11.2575 14.9307 12.0862 14.8503 12.8393 14.543C13.5925 14.2356 14.2362 13.7151 14.689 13.0473C15.1419 12.3795 15.3836 11.5944 15.3836 10.7913C15.3823 9.71466 14.9476 8.68254 14.175 7.92128C13.4023 7.16001 12.3548 6.73175 11.2621 6.73043Z" fill="#64CBE1"/>
</svg>
