<svg width="77" height="85" viewBox="0 0 77 85" fill="none" xmlns="http://www.w3.org/2000/svg">
<path d="M77 27.7789C76.1628 28.4039 75.2245 28.5439 74.1892 28.5333C70.0505 28.4912 65.9097 28.5281 61.7709 28.5039C61.1517 28.5007 60.7104 28.6165 60.2987 29.1394C57.6954 32.4433 54.4644 34.5813 50.0645 34.3909C49.4558 34.3646 49.2031 34.7781 48.8713 35.1095C44.0249 39.9475 39.1837 44.7897 34.3415 49.6319C32.7282 51.246 32.0816 51.2491 30.4913 49.6592C20.967 40.1411 11.4416 30.624 1.91511 21.108C0.238553 19.4329 0.226968 18.9458 1.86877 17.3054C7.24702 11.9276 12.6274 6.55095 18.0098 1.17635C18.4142 0.772309 18.8418 0.391415 19.2588 0C19.7043 0 20.1498 0 20.5952 0C22.2613 1.6551 23.961 3.27863 25.5754 4.98213C26.202 5.64396 26.7402 5.70498 27.5521 5.38407C29.532 4.60123 31.5518 3.92152 33.5517 3.1913C36.9364 1.95602 40.2811 2.14752 43.5521 3.55851C46.7335 4.93057 49.7886 6.56357 52.7921 8.28917C54.257 9.13092 55.7082 9.99898 57.4405 10.1642C57.7944 10.1978 58.2735 10.4472 58.3883 9.80538C58.6474 8.35019 59.6963 8.20184 60.9 8.2555C61.6993 8.29127 62.505 8.22498 63.3032 8.27338C64.0435 8.31758 64.4216 8.19552 64.4195 7.29064C64.4164 5.79863 64.9577 5.34303 66.4668 5.33461C69.1817 5.32093 71.8987 5.36407 74.6126 5.31146C75.5488 5.29358 76.3323 5.4956 76.999 6.14375C77 13.3555 77 20.5672 77 27.7789ZM28.8369 8.34072C30.604 10.0568 32.2511 11.5941 33.8171 13.2082C34.5269 13.9405 35.3199 14.395 36.2814 14.6865C39.4649 15.6524 42.639 16.6509 45.8068 17.6684C47.0642 18.0724 47.556 19.1794 46.9452 20.1463C46.347 21.0912 45.4814 20.9702 44.5778 20.684C40.1368 19.274 35.6958 17.8652 31.2496 16.4721C29.2413 15.8429 27.4973 16.854 27.1151 18.8332C26.816 20.3841 27.9691 21.9898 29.9437 22.6684C33.677 23.951 37.4177 25.2116 41.1647 26.4532C42.1546 26.7814 42.936 27.2686 43.6458 28.0967C47.5718 32.6727 55.0363 31.9098 58.1019 26.6952C58.322 26.3206 58.3631 25.9523 58.3631 25.5514C58.3631 21.8603 58.3462 18.1682 58.3778 14.4771C58.3841 13.7521 58.183 13.4365 57.4279 13.4007C55.3311 13.2987 53.4766 12.4506 51.6979 11.4121C48.6702 9.64334 45.5698 8.01875 42.3673 6.58777C40.2758 5.65343 38.0864 5.25149 35.8717 5.89648C33.5843 6.56147 31.3612 7.45162 28.8369 8.34072ZM29.2065 13.0019C28.1829 12.0423 27.3331 11.3205 26.5759 10.5124C26.0377 9.93795 25.6586 9.8422 24.9098 10.2789C22.3223 11.7877 19.3147 12.4643 16.7545 11.0038C14.0027 9.43395 12.7632 10.7608 11.2341 12.4958C10.7212 13.0777 10.5612 13.4333 10.9803 14.1793C12.8443 17.4969 12.8359 20.8765 10.9803 24.1994C10.618 24.8475 10.5864 25.2137 11.1425 25.764C16.0426 30.6114 20.9249 35.4768 25.7702 40.3789C26.3789 40.9944 26.7717 40.9218 27.4363 40.5441C30.0943 39.03 33.0715 38.505 35.738 39.9023C38.1075 41.1439 39.3849 40.4126 40.7171 38.6744C40.8519 38.4986 41.0025 38.3219 41.1826 38.1988C41.7923 37.7811 41.7291 37.357 41.3742 36.7625C40.2011 34.797 39.6745 32.6642 40.0599 30.3799C40.1768 29.6865 39.9536 29.4551 39.3217 29.273C38.1717 28.9426 37.0322 28.5544 35.9275 28.0956C35.1451 27.7705 34.847 27.922 34.5279 28.7396C32.9788 32.7084 28.9127 35.0296 24.8245 34.3762C20.6921 33.7164 17.4485 30.321 17.1326 26.3237C16.7893 21.9813 19.2799 18.1861 23.3418 16.8235C23.7851 16.6751 24.3527 16.7267 24.6287 16.2364C25.5775 14.5508 27.0698 13.5901 29.2065 13.0019ZM73.7964 16.8298C73.7964 14.3435 73.7785 11.8561 73.8091 9.36977C73.8164 8.76055 73.689 8.50697 73.014 8.52907C71.5049 8.57852 69.9926 8.56695 68.4824 8.53328C67.8811 8.5196 67.6273 8.64902 67.6305 9.32768C67.6578 14.3456 67.661 19.3635 67.6283 24.3803C67.6231 25.1484 67.9485 25.2442 68.5793 25.2295C70.001 25.1968 71.4248 25.1768 72.8444 25.2368C73.5953 25.2684 73.8291 25.0579 73.8143 24.2877C73.7669 21.8035 73.7964 19.3172 73.7964 16.8298ZM20.3425 24.9443C20.3067 27.9083 21.9959 30.2284 24.4402 30.9786C26.9466 31.7488 29.6489 30.7377 31.0632 28.5018C32.0689 26.9119 32.0552 26.7646 30.2555 26.208C27.3194 25.3 24.834 23.9363 24.0084 20.6735C23.843 20.0211 23.5103 20.2578 23.1343 20.4851C21.2998 21.5931 20.4857 23.2766 20.3425 24.9443ZM64.3921 18.2966C64.3921 16.3868 64.3226 14.4729 64.4185 12.5684C64.4743 11.4615 63.9045 11.4436 63.1242 11.5099C62.4449 11.5688 61.614 11.1848 61.6393 12.5074C61.712 16.4142 61.7151 20.3252 61.6372 24.232C61.6109 25.5735 62.4544 25.1611 63.1221 25.2221C63.9014 25.2936 64.4711 25.2621 64.4174 24.1573C64.3237 22.2076 64.3921 20.2505 64.3921 18.2966ZM36.135 43.4892C33.5254 42.216 31.2791 42.1245 28.7748 43.4829C29.8953 44.554 30.9179 45.5189 31.9225 46.5027C32.2185 46.7931 32.4449 46.912 32.804 46.57C33.8539 45.5694 34.9323 44.5972 36.135 43.4892ZM8.02527 22.9325C9.40591 20.2463 9.41433 18.0198 8.01264 15.4819C6.93109 16.6583 5.96223 17.7431 4.9544 18.79C4.669 19.0868 4.68059 19.2635 4.93965 19.5445C5.92958 20.6145 6.90476 21.6994 8.02527 22.9325ZM23.3144 7.47477C22.1496 6.27317 21.0491 5.13785 19.9476 4.00254C18.7986 4.76117 17.9909 5.88175 16.9904 6.79821C16.9578 6.82767 16.9283 6.86134 16.8935 6.8887C16.3217 7.32431 16.5502 7.57683 17.0842 7.79253C19.2125 8.64796 21.2777 8.59746 23.3144 7.47477ZM45.7468 33.485C44.9506 33.0778 44.1755 32.68 43.3404 32.2528C43.233 33.3818 43.5921 34.2573 44.244 35.0948C44.7979 34.5414 45.3803 34.1373 45.7468 33.485Z" fill="#161949"/>
<path d="M0.00159525 69.853C0.00159525 66.7364 -0.00261721 63.6209 0.00264836 60.5043C0.0058077 58.8376 0.454434 58.3568 2.13415 58.3484C6.41084 58.3284 10.6886 58.3231 14.9653 58.3578C15.7815 58.3641 16.3385 58.1821 16.8704 57.4898C22.533 50.1213 31.2959 51.6343 35.7917 56.5323C36.9648 57.8096 38.752 57.8559 40.2621 58.4315C42.7485 59.3795 45.3097 60.1266 47.833 60.9799C49.8876 61.6743 51.5915 62.8475 52.5341 64.8583C52.8542 65.5401 53.1996 65.5001 53.7736 65.337C57.3194 64.3269 60.8726 63.3442 64.4216 62.3488C68.6783 61.1546 72.2989 63.0738 73.1498 66.9795C73.8533 70.2076 71.8145 73.4347 68.1349 74.771C62.1711 76.9374 56.2 79.0881 50.2088 81.1788C47.238 82.2152 44.3724 83.5936 41.2689 84.2091C38.5382 84.75 35.8706 84.367 33.3211 83.2201C29.7921 81.6323 26.3842 79.812 23.0374 77.877C22.1865 77.3857 21.2871 77.0269 20.332 76.7828C19.4242 76.5513 18.6438 76.3545 18.37 77.6666C18.2341 78.3169 17.5707 78.5599 16.882 78.5536C15.7678 78.5431 14.6536 78.581 13.5404 78.541C12.8896 78.5178 12.6084 78.6567 12.5874 79.4059C12.54 81.1031 12.0798 81.5039 10.3979 81.5103C7.63562 81.5218 4.8733 81.5239 2.11098 81.5092C0.463912 81.5008 0.0058077 81.0157 0.00370148 79.3354C-0.00156409 76.1746 0.00159525 73.0138 0.00159525 69.853ZM18.6385 66.8069C18.6385 68.6767 18.6638 70.5464 18.6249 72.4151C18.6112 73.0854 18.8113 73.3737 19.5063 73.4157C21.6915 73.5483 23.624 74.4206 25.4806 75.5191C28.4262 77.2626 31.4676 78.8219 34.5922 80.2213C36.9522 81.2788 39.3923 81.6113 41.8587 80.7369C50.2657 77.7529 58.6516 74.7152 67.0512 71.7101C68.0517 71.3524 68.8636 70.7737 69.4713 69.9162C70.6708 68.2253 69.8135 65.9052 67.8126 65.3328C66.9501 65.0866 66.1245 65.2528 65.3125 65.4749C61.5024 66.5176 57.7017 67.594 53.8936 68.6462C53.4081 68.7808 53.0722 68.9303 52.8384 69.4848C51.2587 73.2316 48.2637 74.5784 44.4051 73.3474C40.0894 71.9711 35.7748 70.5917 31.4602 69.2101C30.0796 68.7682 29.5836 68.0727 29.9016 67.0458C30.2217 66.0115 30.9874 65.7274 32.4091 66.1704C36.8174 67.5435 41.2184 68.9355 45.6256 70.3097C47.3885 70.8589 48.9366 70.2918 49.6264 68.8745C50.3099 67.4698 49.8233 65.8147 48.3427 64.8088C47.8024 64.4416 47.159 64.2028 46.5334 63.9892C42.838 62.7244 39.1332 61.4839 35.4326 60.2349C34.7533 60.0056 34.1625 59.6994 33.6728 59.1112C29.7984 54.4647 23.5871 54.4952 19.678 59.1165C18.9524 59.974 18.5427 60.8347 18.6122 61.9995C18.7112 63.5967 18.6385 65.2044 18.6385 66.8069ZM9.35851 69.8457C9.35851 67.4014 9.33534 64.9561 9.37325 62.5129C9.38379 61.8237 9.19633 61.5817 8.48443 61.6059C7.01849 61.6564 5.54834 61.6575 4.08241 61.6049C3.37893 61.5796 3.18832 61.7974 3.19148 62.4961C3.21991 67.4288 3.21991 72.3625 3.19148 77.2952C3.18726 78.018 3.33891 78.3137 4.13085 78.2779C5.5515 78.2137 6.97847 78.22 8.39912 78.2758C9.15421 78.3053 9.38905 78.077 9.37431 77.311C9.33008 74.8246 9.35851 72.3351 9.35851 69.8457ZM12.6105 68.4084C12.6105 70.3644 12.6811 72.3225 12.5831 74.2733C12.5273 75.397 13.1213 75.3865 13.8848 75.3181C14.5514 75.2592 15.3939 75.6727 15.3665 74.3312C15.2886 70.4212 15.2886 66.5081 15.3665 62.5992C15.3929 61.2503 14.5409 61.6838 13.8806 61.6207C13.1086 61.547 12.5263 61.5628 12.5831 62.676C12.6811 64.5826 12.6105 66.4965 12.6105 68.4084Z" fill="#F15C3E"/>
<path d="M49.6517 21.1785C49.7455 20.1894 50.2994 19.597 51.282 19.617C52.2561 19.6359 52.8816 20.2609 52.8669 21.23C52.8521 22.198 52.214 22.8083 51.2367 22.7978C50.2541 22.7873 49.7181 22.1791 49.6517 21.1785Z" fill="#161949"/>
<path d="M27.3562 65.6915C27.2772 66.6606 26.7917 67.2877 25.787 67.3151C24.7824 67.3424 24.1737 66.7237 24.1389 65.7736C24.1031 64.8035 24.7266 64.1764 25.7028 64.1395C26.6948 64.1027 27.234 64.7046 27.3562 65.6915Z" fill="#F15C3E"/>
</svg>
